<svg width="626" height="628" viewBox="0 0 626 628" fill="none" xmlns="http://www.w3.org/2000/svg">
<path d="M0 0C0 82.4701 16.1149 164.133 47.4245 240.325C78.7341 316.518 124.625 385.748 182.478 444.063C240.331 502.378 309.012 548.636 384.6 580.196C460.188 611.756 541.203 628 623.019 628L623.019 0H0Z" fill="#93B256"/>
<path d="M126.833 0C126.833 65.9761 139.725 131.306 164.773 192.26C189.82 253.214 226.533 308.598 272.815 355.25C319.098 401.903 374.042 438.909 434.513 464.157C494.983 489.405 559.795 502.4 625.248 502.4L625.248 0H126.833Z" fill="#1C1917"/>
</svg>
