<svg width="1490" height="422" viewBox="0 0 1490 422" fill="none" xmlns="http://www.w3.org/2000/svg">
<path d="M225.351 421.475H67.5167L-0.0011723 345.773V292.87H92.3609V310.114L108.729 329.113H184.431L200.506 310.114V275.625L184.431 256.919H67.5167L-0.0011723 181.217V75.7018L67.5167 -8.04663e-05H225.351L292.869 75.7018V128.313H200.506V111.068L184.431 92.362H108.729L92.3609 111.068V145.558L108.729 164.556H225.351L292.869 240.258V345.773L225.351 421.475ZM560.017 421.475H402.183L334.373 345.773V75.7018L402.183 -8.04663e-05H560.017L627.535 75.7018V345.773L560.017 421.475ZM518.805 329.113L535.173 310.114V111.068L518.805 92.362H443.103L427.027 111.068V310.114L443.103 329.113H518.805ZM905.79 421.475H747.956L680.439 345.773V75.7018L747.956 -8.04663e-05H905.79C928.394 25.1364 950.9 50.3704 973.308 75.7018V128.313H880.946V111.068L864.871 92.362H789.169L772.801 111.068V310.114L789.169 329.113H864.871L880.946 310.114V292.87H973.308V345.773L905.79 421.475ZM1148.09 421.475H996.691V329.113H1026.21V92.362H996.691V-8.04663e-05H1148.09V92.362H1118.57V329.113H1148.09V421.475ZM1407.64 421.475H1256.24V329.113H1285.76V92.362H1267.05V128.313H1174.69V-8.04663e-05H1489.19V128.313H1396.83V92.362H1378.12V329.113H1407.64V421.475Z" fill="white"/>
</svg>
