<svg width="1490" height="422" viewBox="0 0 1490 422" fill="none" xmlns="http://www.w3.org/2000/svg">
<path d="M225.352 421.475H77.9766L67.5179 378.475L22.4766 399.475L32.9766 352.975L0 345.773V292.87L45.4766 329.113L92.3621 292.87V310.115L108.73 329.113H184.432L200.508 310.115V275.625L184.432 256.919H67.5179L0 181.217V75.7019L67.5179 0H225.352L292.87 75.7019V128.313L248.477 92.3621L200.508 128.313V111.068L184.432 92.3621H108.73L92.3621 111.068V145.558L108.73 164.557H225.352L292.87 240.258V324.475L236.477 329.113L297.977 421.475H225.352Z" fill="#00FFBF"/>
<path d="M560.018 421.475H402.184L334.374 345.773V75.7019L402.184 0H560.018L627.536 75.7019V345.773L560.018 421.475ZM518.806 329.113L535.174 310.115V111.068L518.806 92.3621H443.104L427.029 111.068V310.115L443.104 329.113H518.806Z" fill="#00FFBF"/>
<path d="M905.792 421.475H747.958L680.44 345.773V75.7019L747.958 0H905.792C928.395 25.1365 950.901 50.3705 973.31 75.7019V128.313H880.947V111.068L864.872 92.3621H789.17L772.802 111.068V310.115L789.17 329.113H864.872L880.947 310.115V292.87H973.31V345.773L905.792 421.475Z" fill="#00FFBF"/>
<path d="M1148.1 421.475H996.692V329.113H1026.21V92.3621H996.692V0H1148.1V92.3621H1118.58V329.113H1148.1V421.475Z" fill="#00FFBF"/>
<path d="M1407.65 421.475H1256.24V329.113H1285.76V92.3621H1267.06V128.313H1174.69V0H1489.19V128.313H1396.83V92.3621H1378.12V329.113H1407.65V421.475Z" fill="#00FFBF"/>
</svg>
